<svg width="67" height="84" viewBox="0 0 67 84" fill="none" xmlns="http://www.w3.org/2000/svg">
<path d="M16.2828 60.7002L6.40813 65.6928C5.5058 65.9975 4.65868 66.4347 3.88708 66.995C-0.322523 70.0414 -1.25977 75.9328 1.79832 80.1272C3.64262 82.6559 6.52516 84 9.44782 84C11.3705 84 13.312 83.418 14.9835 82.2079C15.7561 81.6476 16.4352 80.9814 17.0039 80.2212L31.8715 65.3637L31.8479 65.7502C32.5473 65.7925 33.2533 65.816 33.965 65.816C52.1805 65.816 67 51.0535 67 32.908C67 14.7625 52.1805 0 33.965 0C15.7495 0 0.929976 14.7625 0.929976 32.908C0.929976 44.2697 6.75358 54.6851 16.2828 60.7002ZM14.2299 77.6662C14.1591 77.7376 14.0935 77.8128 14.0345 77.8956C13.6824 78.3821 13.2539 78.8099 12.7641 79.1644C10.2364 80.9988 6.68987 80.4351 4.85265 77.9158C3.01732 75.3997 3.57986 71.8649 6.10704 70.0357C6.59643 69.6813 7.13678 69.4077 7.71159 69.2243C7.80645 69.1933 7.89942 69.1566 7.98909 69.1105L37.9481 53.9639L14.2299 77.6662ZM33.965 3.76091C50.0993 3.76091 63.2246 16.8357 63.2246 32.908C63.2246 48.5487 50.7841 61.3151 35.2467 61.9902L48.9516 48.2948C49.6071 47.6409 49.6868 46.609 49.1422 45.8615C48.5976 45.114 47.591 44.8752 46.7604 45.2903L20.2833 58.6773C10.6739 53.6024 4.70541 43.7371 4.70541 32.908C4.70541 16.8357 17.8307 3.76091 33.965 3.76091Z" fill="#01796F"/>
<path d="M33.9957 44.9265C40.7612 44.9265 46.2658 39.4431 46.2658 32.7035C46.2658 25.9639 40.7612 20.4805 33.9957 20.4805C27.2301 20.4805 21.7255 25.9639 21.7255 32.7035C21.7255 39.4431 27.2301 44.9265 33.9957 44.9265ZM33.9957 24.2414C38.68 24.2414 42.4904 28.0371 42.4904 32.7035C42.4904 37.3699 38.68 41.1656 33.9957 41.1656C29.3113 41.1656 25.501 37.3699 25.501 32.7035C25.501 28.0371 29.3113 24.2414 33.9957 24.2414Z" fill="#01796F"/>
<path d="M8.48081 78.9792C10.5659 78.9792 12.2562 77.2954 12.2562 75.2183C12.2562 73.1412 10.5659 71.4574 8.48081 71.4574C6.3957 71.4574 4.70538 73.1412 4.70538 75.2183C4.70538 77.2954 6.3957 78.9792 8.48081 78.9792Z" fill="#01796F"/>
</svg>
