<svg width="396" height="139" viewBox="0 0 396 139" fill="none" xmlns="http://www.w3.org/2000/svg">
<path d="M16.2828 109.7L6.40813 114.693C5.5058 114.997 4.65868 115.435 3.88708 115.995C-0.322523 119.041 -1.25977 124.933 1.79832 129.127C3.64262 131.656 6.52516 133 9.44782 133C11.3705 133 13.312 132.418 14.9835 131.208C15.7561 130.648 16.4352 129.981 17.0039 129.221L31.8715 114.364L31.8479 114.75C32.5473 114.792 33.2533 114.816 33.965 114.816C52.1805 114.816 67 100.053 67 81.908C67 63.7625 52.1805 49 33.965 49C15.7495 49 0.929976 63.7625 0.929976 81.908C0.929976 93.2697 6.75358 103.685 16.2828 109.7ZM14.2299 126.666C14.1591 126.738 14.0935 126.813 14.0345 126.896C13.6824 127.382 13.2539 127.81 12.7641 128.164C10.2364 129.999 6.68987 129.435 4.85265 126.916C3.01732 124.4 3.57986 120.865 6.10704 119.036C6.59643 118.681 7.13678 118.408 7.71159 118.224C7.80645 118.193 7.89942 118.157 7.98909 118.111L37.9481 102.964L14.2299 126.666ZM33.965 52.7609C50.0993 52.7609 63.2246 65.8357 63.2246 81.908C63.2246 97.5487 50.7841 110.315 35.2467 110.99L48.9516 97.2948C49.6071 96.6409 49.6868 95.609 49.1422 94.8615C48.5976 94.114 47.591 93.8752 46.7604 94.2903L20.2833 107.677C10.6739 102.602 4.70541 92.7371 4.70541 81.908C4.70541 65.8357 17.8307 52.7609 33.965 52.7609Z" fill="#01796F"/>
<path d="M33.9957 93.9265C40.7612 93.9265 46.2658 88.4431 46.2658 81.7035C46.2658 74.9639 40.7612 69.4805 33.9957 69.4805C27.2301 69.4805 21.7255 74.9639 21.7255 81.7035C21.7255 88.4431 27.2301 93.9265 33.9957 93.9265ZM33.9957 73.2414C38.68 73.2414 42.4904 77.0371 42.4904 81.7035C42.4904 86.3699 38.68 90.1656 33.9957 90.1656C29.3113 90.1656 25.501 86.3699 25.501 81.7035C25.501 77.0371 29.3113 73.2414 33.9957 73.2414Z" fill="#01796F"/>
<path d="M8.48081 127.979C10.5659 127.979 12.2562 126.295 12.2562 124.218C12.2562 122.141 10.5659 120.457 8.48081 120.457C6.3957 120.457 4.70538 122.141 4.70538 124.218C4.70538 126.295 6.3957 127.979 8.48081 127.979Z" fill="#01796F"/>
<path d="M166 118L166.01 128.001H176.001V118H166Z" fill="#01796F"/>
<path d="M150.344 128.011L150.354 138.012H160.345V128.011H150.344Z" fill="#01796F"/>
<path d="M184 118L184.01 128.001H194.011V118H184Z" fill="#01796F"/>
<path d="M134 118L134.01 128.001H144.011V118H134Z" fill="#01796F"/>
<path d="M128.001 138.011H118.01L118 128H128.001V138.011Z" fill="#01796F"/>
<path d="M86 118L86.01 128.001H96.001V118H86Z" fill="#01796F"/>
<path d="M112.092 128.011H102.091L102.081 118H112.092V128.011Z" fill="#01796F"/>
<path d="M84.78 107V42.74H94.98V83.115L110.705 66.2H123.795L106.285 84.73L124.9 107H111.385L95.15 86.175H94.98V107H84.78ZM155.934 107V101.39H155.679C152.789 105.98 148.029 108.02 142.589 108.02C135.024 108.02 127.714 103.855 127.714 95.78C127.714 82.52 143.184 81.585 153.384 81.585H155.934V80.48C155.934 75.465 152.024 72.83 146.584 72.83C142.334 72.83 138.424 74.53 135.704 77.08L130.349 71.725C134.854 67.135 141.229 65.18 147.689 65.18C165.114 65.18 165.114 77.76 165.114 83.54V107H155.934ZM155.339 91.02V88.725H153.214C147.604 88.725 137.914 89.15 137.914 95.015C137.914 98.755 141.739 100.37 145.054 100.37C152.024 100.37 155.339 96.715 155.339 91.02ZM179.744 74.87H171.329V66.2H179.744V54.385H189.944V66.2H201.164V74.87H189.944V92.72C189.944 96.8 191.134 99.35 195.639 99.35C197.424 99.35 199.889 99.01 201.164 98.075V106.66C199.039 107.68 195.469 108.02 193.089 108.02C182.294 108.02 179.744 103.175 179.744 93.57V74.87ZM207.086 86.6C207.086 73.765 216.946 65.18 229.271 65.18C241.596 65.18 251.456 73.765 251.456 86.6C251.456 99.435 241.596 108.02 229.271 108.02C216.946 108.02 207.086 99.435 207.086 86.6ZM217.286 86.6C217.286 92.975 221.791 98.84 229.271 98.84C236.751 98.84 241.256 92.975 241.256 86.6C241.256 80.225 236.751 74.36 229.271 74.36C221.791 74.36 217.286 80.225 217.286 86.6ZM293.306 107V100.88H293.136C290.161 105.81 284.806 108.02 279.111 108.02C266.531 108.02 258.966 98.67 258.966 86.6C258.966 74.53 267.041 65.18 278.686 65.18C286.336 65.18 290.416 68.75 292.541 71.385H292.796V42.74H302.996V107H293.306ZM269.166 86.6C269.166 92.975 273.671 98.84 281.151 98.84C288.631 98.84 293.136 92.975 293.136 86.6C293.136 80.225 288.631 74.36 281.151 74.36C273.671 74.36 269.166 80.225 269.166 86.6ZM340.046 107V101.39H339.791C336.901 105.98 332.141 108.02 326.701 108.02C319.136 108.02 311.826 103.855 311.826 95.78C311.826 82.52 327.296 81.585 337.496 81.585H340.046V80.48C340.046 75.465 336.136 72.83 330.696 72.83C326.446 72.83 322.536 74.53 319.816 77.08L314.461 71.725C318.966 67.135 325.341 65.18 331.801 65.18C349.226 65.18 349.226 77.76 349.226 83.54V107H340.046ZM339.451 91.02V88.725H337.326C331.716 88.725 322.026 89.15 322.026 95.015C322.026 98.755 325.851 100.37 329.166 100.37C336.136 100.37 339.451 96.715 339.451 91.02Z" fill="#222222"/>
<path d="M395.662 9.3238V5.1686H390.595V0H385.527V5.1686H382.082V9.3238H385.527V18.5462C385.527 19.5597 385.629 20.4718 385.831 21.2826C386.034 22.0933 386.338 22.9041 386.845 23.6135C387.352 24.3229 388.061 24.8297 388.872 25.1337C389.683 25.5391 390.797 25.7418 392.115 25.7418C392.723 25.7418 393.23 25.6404 393.838 25.6404C394.446 25.5391 394.953 25.4377 395.459 25.235H395.561L395.358 21.0799L395.257 21.1812C394.953 21.2826 394.649 21.3839 394.243 21.4852C393.838 21.5866 393.534 21.5866 393.128 21.5866C392.014 21.5866 391.405 21.2826 391.101 20.7758C390.797 20.1678 390.595 19.4583 390.595 18.6476V9.3238H395.662Z" fill="#222222"/>
<path d="M302.221 13.1749C302.323 11.8574 302.931 10.7426 303.944 9.83049C304.958 8.91839 306.275 8.51299 307.694 8.51299C308.505 8.51299 309.214 8.61429 309.721 8.91839C310.329 9.22239 310.836 9.52639 311.14 9.93179C311.545 10.3372 311.748 10.8439 311.95 11.452C312.153 11.9587 312.255 12.5668 312.255 13.1749H302.221ZM314.687 7.29679C313.775 6.38469 312.761 5.67529 311.545 5.26989C310.329 4.76319 309.011 4.56049 307.694 4.56049C306.174 4.56049 304.755 4.86449 303.437 5.37129C302.12 5.87799 301.005 6.58739 300.093 7.60089C299.181 8.51299 298.37 9.62779 297.863 11.0466C297.357 12.3641 297.053 13.8843 297.053 15.5058C297.053 17.1274 297.357 18.6476 297.863 19.9651C298.37 21.2825 299.181 22.3973 300.093 23.3095C301.107 24.2216 302.221 24.931 303.539 25.3364C304.856 25.8431 306.275 26.0458 307.897 26.0458C311.646 26.0458 314.585 24.7283 316.511 21.992L316.612 21.8906L313.167 19.1543L313.065 19.2556C312.559 20.0664 311.849 20.6745 310.937 21.0799C310.126 21.4852 309.011 21.7893 307.795 21.7893C307.086 21.7893 306.376 21.6879 305.768 21.3839C305.16 21.1812 304.552 20.7758 304.046 20.3704C303.539 19.9651 303.133 19.4583 302.829 18.8503C302.525 18.3435 302.323 17.6341 302.323 17.026H317.525V16.9247C317.525 16.722 317.525 16.5193 317.525 16.2153V15.5058C317.525 13.6816 317.322 12.0601 316.815 10.7426C316.207 9.42509 315.599 8.20899 314.687 7.29679Z" fill="#222222"/>
<path d="M284.689 10.9453C285.094 10.3372 285.702 9.83049 286.411 9.52649C287.121 9.12109 287.932 9.01969 288.742 9.01969C289.553 9.01969 290.263 9.22239 291.073 9.52649C291.783 9.93179 292.391 10.3372 292.796 10.8439L292.898 10.9453L296.343 7.90489L296.445 7.80359L296.343 7.70219C295.533 6.68879 294.418 5.97929 292.999 5.37129C291.58 4.86449 290.161 4.56049 288.742 4.56049C287.222 4.56049 285.905 4.76319 284.587 5.26989C283.27 5.77669 282.155 6.48609 281.141 7.39819C280.128 8.31029 279.419 9.42509 278.81 10.7426C278.202 12.0601 278 13.5803 278 15.1005C278 16.722 278.304 18.2422 278.81 19.5597C279.419 20.8772 280.128 21.992 281.141 22.9041C282.155 23.8162 283.27 24.5256 284.587 25.0323C285.905 25.5391 287.324 25.7418 288.844 25.7418C290.364 25.7418 291.783 25.5391 293.1 25.0323C294.418 24.5256 295.431 23.8162 296.343 22.9041L296.445 22.8027L293.303 19.5597L293.202 19.4583L293.1 19.5597C292.593 20.1677 291.985 20.5731 291.276 20.8772C290.567 21.1812 289.756 21.2825 288.945 21.2825C288.033 21.2825 287.222 21.0799 286.513 20.7758C285.803 20.3704 285.195 19.9651 284.79 19.357C284.283 18.7489 283.979 18.0395 283.776 17.3301C283.574 16.6206 283.472 15.8099 283.472 14.9991C283.472 14.1883 283.574 13.4789 283.776 12.6682C283.979 12.2628 284.283 11.5534 284.689 10.9453Z" fill="#222222"/>
<path d="M355.732 7.09419C355.124 6.38469 354.313 5.67529 353.401 5.26989C352.489 4.76319 351.273 4.56049 350.056 4.56049C348.536 4.56049 347.219 4.96589 346.104 5.67529C345.09 6.38469 344.28 7.19549 343.874 8.10759V5.06719H338.908V25.235H344.077V14.2897C344.077 13.6816 344.178 12.9722 344.381 12.3641C344.584 11.7561 344.888 11.148 345.192 10.6413C345.597 10.1345 346.003 9.72909 346.611 9.42509C347.219 9.12109 347.827 8.91839 348.638 8.91839C349.448 8.91839 350.056 9.12109 350.563 9.42509C351.07 9.72909 351.374 10.1345 351.678 10.6413C351.982 11.148 352.083 11.7561 352.185 12.3641C352.286 12.9722 352.286 13.5803 352.286 14.1884V25.3364H357.455V12.7695C357.455 11.7561 357.353 10.7426 357.049 9.72909C356.745 8.71569 356.34 7.90489 355.732 7.09419Z" fill="#222222"/>
<path d="M326.24 9.01969C326.848 8.71569 327.659 8.51299 328.368 8.51299C329.281 8.51299 330.091 8.71569 330.902 9.12109C331.612 9.52639 332.22 10.0332 332.726 10.6413L332.828 10.7426L336.172 7.70219L336.071 7.60089C335.26 6.58739 334.145 5.77669 332.726 5.26989C331.308 4.76319 329.889 4.56049 328.47 4.56049C327.456 4.56049 326.443 4.66189 325.531 4.96589C324.619 5.16859 323.707 5.57399 322.997 6.08069C322.288 6.58739 321.578 7.29679 321.173 8.10759C320.666 8.91839 320.464 9.93179 320.464 11.0466C320.464 11.9587 320.666 12.7695 320.97 13.4789C321.274 14.087 321.781 14.6951 322.288 15.1005C322.896 15.5058 323.504 15.9112 324.213 16.1139C324.923 16.418 325.632 16.6206 326.443 16.722C327.963 17.1274 329.078 17.4314 329.889 17.8368C330.598 18.1408 331.003 18.7489 331.003 19.5597C331.003 19.9651 330.902 20.3704 330.699 20.6745C330.497 20.9785 330.294 21.1812 329.99 21.3839C329.686 21.5866 329.382 21.6879 328.977 21.7893C328.571 21.8906 328.267 21.8906 327.862 21.8906C326.848 21.8906 325.835 21.6879 324.923 21.1812C324.011 20.6745 323.301 20.1677 322.794 19.4583L322.693 19.357L319.247 22.6L319.349 22.7014C320.362 23.7148 321.578 24.627 322.997 25.1337C324.517 25.7418 326.038 25.9444 327.558 25.9444C328.673 25.9444 329.686 25.8431 330.699 25.6404C331.713 25.4377 332.625 25.0323 333.436 24.5256C334.247 24.0189 334.855 23.3095 335.26 22.3974C335.767 21.5866 335.969 20.4718 335.969 19.2556C335.969 18.2422 335.767 17.4314 335.361 16.722C334.956 16.0126 334.449 15.4045 333.841 14.9991C333.233 14.4924 332.524 14.1883 331.713 13.8843C330.902 13.5803 330.193 13.3776 329.483 13.1749C328.064 12.8709 327.051 12.5668 326.24 12.1614C325.531 11.8574 325.227 11.3507 325.227 10.6413C325.227 9.83049 325.531 9.32379 326.24 9.01969Z" fill="#222222"/>
<path d="M365.461 13.1749C365.562 11.8574 366.17 10.7426 367.184 9.83049C368.197 8.91839 369.515 8.51299 370.934 8.51299C371.744 8.51299 372.454 8.61429 372.961 8.91839C373.569 9.22239 374.075 9.52639 374.379 9.93179C374.785 10.3372 374.987 10.8439 375.19 11.452C375.393 11.9587 375.494 12.5668 375.494 13.1749H365.461ZM377.927 7.29679C377.014 6.38469 376.001 5.67529 374.785 5.26989C373.569 4.76319 372.251 4.56049 370.934 4.56049C369.413 4.56049 367.995 4.86449 366.677 5.37129C365.36 5.87799 364.245 6.58739 363.333 7.60089C362.421 8.51299 361.61 9.62779 361.103 11.0466C360.596 12.3641 360.292 13.8843 360.292 15.5058C360.292 17.1274 360.596 18.6476 361.103 19.9651C361.61 21.2825 362.421 22.3973 363.333 23.3095C364.245 24.2216 365.461 24.931 366.778 25.3364C368.096 25.8431 369.515 26.0458 371.136 26.0458C374.886 26.0458 377.825 24.7283 379.751 21.992L379.852 21.8906L376.406 19.1543L376.305 19.2556C375.798 20.0664 375.089 20.6745 374.177 21.0799C373.366 21.4852 372.251 21.7893 371.035 21.7893C370.326 21.7893 369.616 21.6879 369.008 21.3839C368.4 21.1812 367.792 20.7758 367.285 20.3704C366.778 19.9651 366.373 19.4583 366.069 18.8503C365.765 18.3435 365.562 17.6341 365.562 17.026H380.764V16.9247C380.764 16.722 380.764 16.5193 380.764 16.2153V15.5058C380.764 13.6816 380.561 12.0601 380.055 10.7426C379.447 9.42509 378.839 8.20899 377.927 7.29679Z" fill="#222222"/>
</svg>
