<svg width="16" height="16" viewBox="0 0 16 16" fill="none" version="1.1" id="svg3" xmlns="http://www.w3.org/2000/svg" xmlns:svg="http://www.w3.org/2000/svg">
<g id="g3" transform="matrix(0.19402985,0,0,0.19047619,1.4999999,-9.3333333)">
<path d="m 16.2828,109.7 -9.87467,4.993 c -0.90233,0.304 -1.74945,0.742 -2.52105,1.302 -4.209603,3.046 -5.14685,8.938 -2.08876,13.132 1.8443,2.529 4.72684,3.873 7.6495,3.873 1.92268,0 3.86418,-0.582 5.53568,-1.792 0.7726,-0.56 1.4517,-1.227 2.0204,-1.987 l 14.8676,-14.857 -0.0236,0.386 c 0.6994,0.042 1.4054,0.066 2.1171,0.066 C 52.1805,114.816 67,100.053 67,81.908 67,63.7625 52.1805,49 33.965,49 15.7495,49 0.929976,63.7625 0.929976,81.908 c 0,11.3617 5.823604,21.777 15.352824,27.792 z m -2.0529,16.966 c -0.0708,0.072 -0.1364,0.147 -0.1954,0.23 -0.3521,0.486 -0.7806,0.914 -1.2704,1.268 -2.5277,1.835 -6.07423,1.271 -7.91145,-1.248 -1.83533,-2.516 -1.27279,-6.051 1.25439,-7.88 0.48939,-0.355 1.02974,-0.628 1.60455,-0.812 0.09486,-0.031 0.18783,-0.067 0.2775,-0.113 L 37.9481,102.964 Z M 33.965,52.7609 c 16.1343,0 29.2596,13.0748 29.2596,29.1471 0,15.6407 -12.4405,28.407 -27.9779,29.082 L 48.9516,97.2948 C 49.6071,96.6409 49.6868,95.609 49.1422,94.8615 48.5976,94.114 47.591,93.8752 46.7604,94.2903 L 20.2833,107.677 C 10.6739,102.602 4.70541,92.7371 4.70541,81.908 4.70541,65.8357 17.8307,52.7609 33.965,52.7609 Z" fill="#01796f" id="path1" />
<path d="m 33.9957,93.9265 c 6.7655,0 12.2701,-5.4834 12.2701,-12.223 0,-6.7396 -5.5046,-12.223 -12.2701,-12.223 -6.7656,0 -12.2702,5.4834 -12.2702,12.223 0,6.7396 5.5046,12.223 12.2702,12.223 z m 0,-20.6851 c 4.6843,0 8.4947,3.7957 8.4947,8.4621 0,4.6664 -3.8104,8.4621 -8.4947,8.4621 -4.6844,0 -8.4947,-3.7957 -8.4947,-8.4621 0,-4.6664 3.8103,-8.4621 8.4947,-8.4621 z" fill="#01796f" id="path2" />
<path d="m 8.48081,127.979 c 2.08509,0 3.77539,-1.684 3.77539,-3.761 0,-2.077 -1.6903,-3.761 -3.77539,-3.761 -2.08511,0 -3.77543,1.684 -3.77543,3.761 0,2.077 1.69032,3.761 3.77543,3.761 z" fill="#01796f" id="path3" />
</g>
</svg>
